<svg xmlns="http://www.w3.org/2000/svg" xml:space="preserve" viewBox="0 0 520 520"><path fill="#DFE3EC" d="M284.05 228.97c0 17.85-14.45 32.3-32.3 32.3s-32.3-14.45-32.3-32.3 14.45-32.3 32.3-32.3 32.3 14.46 32.3 32.3zm66.1-80.94a23.34 23.34 0 0 1 23.35 23.35v113.1a24.9 24.9 0 0 1-24.9 24.9H154.9a24.9 24.9 0 0 1-24.9-24.9v-113.1a23.34 23.34 0 0 1 23.35-23.35h46.7l2.2-9.3a31.83 31.83 0 0 1 31-24.6h37.05c14.8 0 27.65 10.2 31 24.6l2.15 9.3h46.7zm-40.8 80.94c0-31.8-25.8-57.6-57.6-57.6s-57.6 25.8-57.6 57.6 25.8 57.6 57.6 57.6 57.6-25.8 57.6-57.6z"/><path fill="#C7CBD2" d="M411.5 230.72a10 10 0 1 0-5.5 19.23c45.65 13.06 74 32 74 49.42 0 12.75-15.51 26.75-42.55 38.4-29.75 12.82-71.96 22.2-118.9 26.42l-40.96-.55h-.14a10 10 0 0 0-.13 20l41.48.56h.14c.3 0 .59-.01.88-.04 49.2-4.38 93.78-14.34 125.54-28.02 45.16-19.46 54.64-41.62 54.64-56.77 0-27.95-31.43-52.32-88.5-68.65zm-208.64 94.82a10 10 0 0 0-15.27 12.91l22.36 26.44c-47.2-3.6-89.94-12.24-121.37-24.65C57.71 328.06 40 313.16 40 299.37c0-16.02 23.74-33.28 63.5-46.18a10 10 0 0 0-6.18-19.02c-23.13 7.5-41.47 16.42-54.51 26.52C27.67 272.41 20 285.42 20 299.37c0 23.1 21.18 43.67 61.24 59.48 32.57 12.85 76.23 21.87 124.23 25.76l-19.95 22.1a10 10 0 1 0 14.85 13.4l36.39-40.33a10 10 0 0 0 2.57-6.7v-.76a10 10 0 0 0-2.36-6.46l-34.11-40.32z"/></svg>